# xmcd CD database file
#
# Track frame offsets:
#	150
#	12196
#	27374
#	44504
#	59634
#	74265
#	90850
#	101328
#	115645
#	127222
#	138690
#	156002
#	169199
#	181950
#	194824
#
# Disc length: 2759 seconds
#
# Revision: 1
# Processed by: cddbd v1.4PL0 Copyright (c) Steve Scherf et al.
# Submitted via: NotifyCDPlayer 1.60beta14
#
DISCID=d30ac50f
DTITLE=Delaney Brothers Bluegrass - We'll Meet Again Someday
DYEAR=1900
DGENRE=
TTITLE0=Endless Day
TTITLE1=Gone Away
TTITLE2=A Date With An Angel
TTITLE3=Just Let Me Fly
TTITLE4=You Better Be Prepared
TTITLE5=Nothing Can Touch Me
TTITLE6=Wings of Angels
TTITLE7=Thank God for a Mama
TTITLE8=I'm a Believer
TTITLE9=Little Mountain Church
TTITLE10=Model Church
TTITLE11=The In Crowd
TTITLE12=Flowers for Mama
TTITLE13=Sing, Sing, Sing
TTITLE14=America the Beautiful
EXTD=Delaney Brothers Bluegrass (c) 2002\nhttp://www.delaneybrothers.com
EXTT0=W.A. Pierce (Top O'Holston Pub., Southern Melody Pub. Co., BMI
EXTT1=S. Collom (Milene Music, Inc., ASCAP)
EXTT2=B. Abner
EXTT3=Jamie S. Dailey (Top O'Holston Pub., Southern Melody Pub. Co., BMI
EXTT4=B. Caswell, K. Strandlund (Tree Int'l., BMI)
EXTT5=Lois Begly Dow (Top O'Holston Oub., Southern Melody Pub. Co., BMI
EXTT6=Ruby Rakes (Fort Knox Music, Inc., - Trio Music Co. Inc., BMI
EXTT7=Joel Hemphill (Trumpet Call Music, BMI)
EXTT8=Tony Holt (Tulipland Publishing, BMI)
EXTT9=Carl Jackson, Jum Rushing (Polygram Inter. Pub., Inc. - Harbor of Love
EXTT9=Music, ASCAP)
EXTT10=Author Unknown
EXTT11=J. McBee, F. Lehner (Royal Oak Music, ASCAP)
EXTT12=Noack, Rumley, Walker, BMI
EXTT13=Author Unknown
EXTT14=Katherine Lee Bates, Samuel A. Ward (Public Domain)
PLAYORDER=
